<svg xmlns="http://www.w3.org/2000/svg" viewBox="0 0 490 490"><path d="M374.621 429.894c-30.535 14.94-68.393 22.412-113.58 22.412-42.256 0-80.758-7.175-115.517-21.519-34.759-14.35-61.315-36.548-79.682-66.598-18.367-30.056-27.555-65.878-27.555-107.479 0-39.729 9.188-76.947 27.555-111.675 18.367-34.716 44.239-61.375 77.61-79.967 33.38-18.592 70.24-27.889 110.609-27.889 35.355 0 67.65 7.39 96.885 22.157 29.236 14.773 51.219 34.472 65.969 59.086 14.75 24.619 22.12 51.105 22.12 79.464 0 24.277-5.737 47.837-17.203 70.671-11.475 22.835-27.036 41.045-46.694 54.629-14.838 10.357-26.821 15.532-35.97 15.532-5.005 0-9.267-1.651-12.805-4.966-3.538-3.309-5.297-7.256-5.297-11.84 0-2.544 2.581-15.7 7.761-39.474l37.25-170.889h-46.311l-8.797 39.474c-9.824-15.787-21.553-27.546-35.179-35.272-13.626-7.725-27.945-11.591-42.949-11.591-19.657 0-39.93 6.792-60.798 20.377-20.869 13.584-38.336 33.916-52.392 60.993-14.055 27.083-21.084 54.119-21.084 81.115 0 21.901 4.526 42.023 13.587 60.361 9.051 18.337 20.819 31.922 35.315 40.749 14.486 8.826 29.402 13.243 44.758 13.243 13.968 0 27.897-3.86 41.777-11.592 13.88-7.72 26.43-17.955 37.642-30.688 1.036 10.357 2.679 17.659 4.917 21.901 3.451 6.625 8.836 11.719 16.167 15.284 7.331 3.565 16.949 5.35 28.855 5.35 37.25 0 71.57-17.15 102.965-51.448 35.189-38.199 52.773-81.915 52.773-131.16 0-34.461-8.366-66.383-25.091-95.755-19.667-34.131-46.527-59.805-80.592-77.041C337.575 8.618 299.161 0 256.387 0 201.19 0 154.233 12.223 115.516 36.668 76.79 61.12 46.909 96.352 25.873 142.363 8.621 179.889 0 219.363 0 260.79c0 37.178 7.243 71.818 21.728 103.903 11.554 25.298 28.718 47.668 51.484 67.113 22.774 19.439 50.319 33.997 82.663 43.676C188.21 485.161 223.526 490 261.822 490c41.562 0 77.092-5.396 106.582-16.176 29.5-10.785 54.934-25.425 76.32-43.93 21.387-18.506 36.478-36.675 45.276-54.502h-46.821c-15.18 21.392-38.032 39.561-68.558 54.502zm-87.708-163.123c-6.207 17.237-14.193 31.453-23.928 42.662-9.745 11.203-19.97 19.653-30.663 25.338-10.693 5.692-20.869 8.531-30.526 8.531-14.485 0-27.339-6.45-38.55-19.351-11.212-12.901-16.813-30.983-16.813-54.247 0-14.605 2.756-30.648 8.279-48.139 5.513-17.484 12.844-32.345 21.993-44.567 9.139-12.224 18.582-21.097 28.327-26.614 9.745-5.517 20.136-8.276 31.171-8.276 16.734 0 30.917 6.369 42.559 19.102 11.641 12.733 17.467 30.646 17.467 53.737-.001 17.317-3.108 34.593-9.316 51.824z"/></svg>