<svg xmlns="http://www.w3.org/2000/svg" viewBox="0 0 358.613 358.613"><path d="M286.319 209.758s13.674-8.197 13.5-23.877c-.172-15.678-11.021-19.902-24.207-19.796l-65.9-.014c-2.908-6.404-5.828-18.135-14.24-24.814-14.982-11.895-27.471-6.413-36.889-.785-21.282 12.704-45.341 39.315-59.985 44.249-18.007 6.067-39.806 4.486-39.806 4.486v91.684c37.328 0 60.121 13.121 79.125 20.916 43.066 17.662 73.184 17.358 88.932 16.772 32.658-1.215 35.4-27.87 36.285-33.175 8.475-3.372 14.045-8.527 16.6-15.344 1-2.654 1.506-5.56 1.506-8.604 0-5.118-1.404-9.728-2.656-12.815 7.424-4.092 12.029-9.551 13.707-16.24.465-1.838.678-3.779.699-5.774.154-13.565-6.671-16.869-6.671-16.869zM244.321 333.57l-21.393.002v20.041c0 1.326.527 2.6 1.465 3.535a4.994 4.994 0 0 0 3.535 1.465h11.398a5 5 0 0 0 5-5.002l-.005-20.041z"/><path d="M239.319 0h-11.391a5 5 0 0 0-5 5v4.419c-5.021 1.332-10.293 1.986-15.932 1.986-11.38 0-23.051-2.687-34.338-5.285-11.609-2.672-23.613-5.435-35.67-5.435-9.861 0-18.725 1.837-27.098 5.616-.907.41-1.484 1.245-1.492 2.162-.008.917.554 1.76 1.454 2.183 14.908 6.998 26.032 19.369 36.703 31.51-14.184 12.398-26.554 26.513-37.761 43.079-.628.928-.5 2.12.314 2.92.813.802 2.116 1.02 3.193.533 7.607-3.433 15.682-5.103 24.687-5.103 11.381 0 23.052 2.687 34.339 5.284 11.608 2.672 23.612 5.435 35.669 5.435 5.604 0 10.878-.615 15.932-1.821v58.488h21.391V5a5 5 0 0 0-5-5z"/></svg>
