<svg xmlns="http://www.w3.org/2000/svg" viewBox="0 0 661 379"><path fill="#AAD596" d="M11.542 315.025c-.972-5.831-6.804-9.719-7.775-16.52-.973-4.86 0-10.692 0-15.552 0-12.634 0-23.324 2.916-35.957 3.887-11.664 9.718-22.354 11.663-34.988.971-4.859-.973-14.578 1.943-19.436 3.887-5.833 12.635-8.748 17.494-15.552 5.831-7.775 14.578-16.522 16.521-26.239 1.944-12.634-2.916-25.269 2.916-37.902 3.887-7.775 9.719-13.606 15.55-20.409 1.943-1.944 5.831-4.86 6.803-7.775.972-1.944 2.914-7.775 3.887-8.747 3.889-2.916 15.55-1.944 20.409-4.858 7.775-2.917 13.607-10.691 21.382-13.606 9.716-4.859 22.35-8.748 32.071-9.718-.972 6.803-8.747 11.661-9.721 19.437 0 8.746 5.833 11.662 12.635 15.549 13.608 8.747 20.41 19.438 31.1 30.128 8.748 8.747 23.325 28.183 24.296 42.76 0 8.748-2.915 8.748 4.86 13.606 6.802 3.888 14.577 7.775 21.38 9.719 9.719 1.944 30.128 3.887 36.93-4.859 4.86-5.833 5.833-11.664 11.664-17.495 4.858-4.858 14.578-11.662 18.465-18.464 6.803-13.607.971-38.875 0-53.453-.972-15.55-7.775-35.959-3.887-50.536 1.944-11.664 7.774-8.748 15.549-12.635s14.579-6.802 23.324-9.719c6.805-1.944 13.606-3.887 21.382-5.831 3.887-.972 6.804-1.944 10.69-2.915 8.747-1.944 15.549-.972 24.295.971 6.804 1.944 15.55 2.916 22.354 6.804 7.774 4.858 13.604 13.604 20.409 19.436 11.663 9.719 20.41 21.381 32.071 31.1 12.635 10.69 23.323 18.465 38.874 14.578 19.438-5.831 28.183-4.858 46.651.972 5.827.972 12.633.972 15.55 6.803 4.857 7.774 0 9.718 8.746 15.55 14.576 9.718 33.041 13.606 27.211 34.015-4.858 14.577-8.749 29.155-9.717 45.677 0 1.944-.973 6.803.968 8.745 3.891 2.917 6.807-4.858 9.721-4.858 10.69-1.943 6.802 9.72 8.747 16.522 1.943 7.774 7.772 17.492 12.634 24.297 6.804 6.803 7.773 7.773 9.718 17.493 1.943 10.69 10.689 19.438 11.662 30.126 1.944 8.749-1.945 11.663-7.773 18.466-9.719 8.749-20.409 18.465-29.156 28.184-3.889 4.858-7.775 8.747-11.661 14.578-5.831 6.803-4.858 13.607-6.804 21.38-1.944 7.778-4.86 8.747-13.604 8.747-6.806 0-21.384 2.918-28.186 0-5.833-2.915-.973-13.605-9.719-11.662-5.832.973-11.663 11.662-15.549 15.552-7.776 10.69-22.354 9.718-34.989 9.718-5.828 0-13.605.973-18.464-1.943-6.803-3.888-2.913-7.774-5.832-14.579-2.916-6.803-8.747-7.774-14.575-11.661-4.86-2.914-9.721-7.774-15.551-11.662-11.662-7.775-16.521-28.186-30.13-30.129-11.662-1.945-32.07 1.943-42.76-5.83-3.889-3.889-7.774-11.664-10.69-16.523-2.916-3.885-4.86-18.464-8.745-20.406-5.832-3.889-25.271 17.493-32.072 21.38-7.775 4.858-11.663 1.944-20.409 1.944-5.831.971-10.691 5.83-17.495 6.803-2.917-12.634-14.578-11.663-23.325-14.577-10.69-2.917-16.521-3.889-28.183-1.945-10.69 2.917-21.381 0-32.072 0-5.83.973-9.718 2.917-12.634-1.943-1.942-4.859.973-12.635-.972-17.494-4.859 1.944-3.887 5.833-5.831 9.719-2.916 6.804.972 5.831-7.774 6.804-8.747.972-27.212 2.915-33.043-2.917-3.888-2.915-1.944-4.857-7.775-7.772-2.917-.974-6.803-.974-9.72-.974-7.773-.972-16.521-.972-23.324.974-15.549 3.886-32.071 9.717-45.678 17.493-8.747 4.859-13.605 11.661-21.38 17.494-2.916 2.914-6.804 5.827-9.719 8.744-2.916 3.888-2.916 8.749-6.802 11.662"/><path fill="#892222" d="M529.752 227.031c14.51 0 14.51-22.5 0-22.5s-14.51 22.5 0 22.5z"/><text transform="translate(521.953 224.378)" fill="#FCFDFF" font-family="'Arial-Black'" font-size="24">1</text><path fill="#892222" d="M376.787 252.226c14.51 0 14.51-22.5 0-22.5s-14.51 22.5 0 22.5z"/><text transform="translate(368.99 248.973)" fill="#FCFDFF" font-family="'Arial-Black'" font-size="24">2</text><path fill="#892222" d="M127.552 170.542l.111.017-2.687-1.134.08.043-2.277-1.759.054.059-1.759-2.277.032.064-1.134-2.688c.012.033.02.067.022.102l-.402-2.991.001.017.402 2.991a11.24 11.24 0 0 0 2.893 4.964c2.101 2.1 4.983 3.295 7.955 3.295s5.854-1.195 7.955-3.295c2.009-2.01 3.447-5.061 3.295-7.955-.136-2.592-.425-3.557-1.592-5.86-.741-1.461-2.658-3.324-4.089-4.095-.915-.492-1.848-1.039-2.878-1.193l-2.991-.402a11.191 11.191 0 0 0-5.678 1.536 11.328 11.328 0 0 0-5.17 6.723 11.322 11.322 0 0 0 1.134 8.669l1.759 2.277a11.254 11.254 0 0 0 4.964 2.892z"/><text transform="translate(122.644 168.992)" fill="#FCFDFF" font-family="'Arial-Black'" font-size="24">3</text><path fill="#892222" d="M96.65 216.833c14.51 0 14.51-22.5 0-22.5s-14.509 22.5 0 22.5z"/><text transform="translate(87.953 214.182)" fill="#FCFDFF" font-family="'Arial-Black'" font-size="24">4</text><path fill="#892222" d="M118.546 236.929c14.51 0 14.51-22.5 0-22.5s-14.51 22.5 0 22.5z"/><text transform="translate(110.447 234.576)" fill="#FCFDFF" font-family="'Arial-Black'" font-size="24">5</text><path fill="#892222" d="M343.192 136.252c14.51 0 14.51-22.5 0-22.5s-14.509 22.5 0 22.5z"/><text transform="translate(335.194 133.6)" fill="#FCFDFF" font-family="'Arial-Black'" font-size="24">6</text><path fill="#892222" d="M405.178 257.823c14.51 0 14.51-22.5 0-22.5s-14.51 22.5 0 22.5z"/><text transform="translate(397.183 256.172)" fill="#FCFDFF" font-family="'Arial-Black'" font-size="24">7</text></svg>
