<svg xmlns="http://www.w3.org/2000/svg" viewBox="0 0 25.916 25.916"><g fill="#000000"><path d="M7.938 8.13c.09.414.228.682.389.849.383 2.666 2.776 4.938 4.698 4.843 2.445-.12 4.178-2.755 4.567-4.843.161-.166.316-.521.409-.938.104-.479.216-1.201-.072-1.583a3.786 3.786 0 0 0-.146-.138c.275-.992.879-2.762-.625-4.353-.815-.862-1.947-1.295-2.97-1.637-3.02-1.009-5.152.406-6.136 2.759-.071.167-.53 1.224.026 3.231a.57.57 0 0 0-.144.138c-.289.381-.101 1.193.004 1.672z"/><path d="M23.557 22.792c-.084-1.835-.188-4.743-1.791-7.122 0 0-.457-.623-1.541-1.037 0 0-2.354-.717-3.438-1.492l-.495.339.055 3.218-2.972 7.934a.444.444 0 0 1-.832 0l-2.971-7.934s.055-3.208.054-3.218c.007.027-.496-.339-.496-.339-1.082.775-3.437 1.492-3.437 1.492-1.084.414-1.541 1.037-1.541 1.037-1.602 2.379-1.708 5.287-1.792 7.122-.058 1.268.208 1.741.542 1.876 4.146 1.664 15.965 1.664 20.112 0 .336-.134.6-.608.543-1.876z"/><path d="M13.065 14.847l-.134.003c-.432 0-.868-.084-1.296-.232l1.178 1.803-1.057 1.02 1.088 6.607a.118.118 0 0 0 .232 0l1.088-6.607-1.058-1.02 1.161-1.776c-.379.111-.78.185-1.202.202z"/></g></svg>
