<svg xmlns="http://www.w3.org/2000/svg" viewBox="0 0 407.605 407.605"><path d="M203.805 303.261c11.283 0 105.451-116.968 105.451-175.209 0-58.239-47.213-105.452-105.451-105.452-58.242 0-105.453 47.213-105.453 105.452 0 58.24 94.578 175.209 105.453 175.209zM135.69 124.359c0-37.618 30.494-68.113 68.115-68.113 37.617 0 68.113 30.495 68.113 68.113 0 37.618-30.496 68.114-68.113 68.114-37.621 0-68.115-30.496-68.115-68.114z"/><path d="M391.088 222.666c0-9.713-7.9-17.614-17.613-17.614h-64.223c-1.34 0-2.883-.071-4.58 2.776-3.389 5.688-3.092 5.188-6.273 10.453-1.48 2.449.76 3.279 1.682 3.279h73.396c.588 0 1.104.518 1.104 1.104l16.52 144.727c0 .588-.516 1.105-1.105 1.105H17.616a1.133 1.133 0 0 1-1.105-1.105l16.517-144.725c0-.588.516-1.104 1.105-1.104h72.826c1.5 0 3.875-.872 1.174-5.269-3.169-5.157-1.941-3.646-5.299-9.354-1.25-2.125-2.983-1.888-5.328-1.888H34.133c-9.709 0-17.613 7.901-17.613 17.614L0 367.393c0 9.713 7.902 17.613 17.615 17.613h372.377c9.715 0 17.613-7.9 17.613-17.613l-16.517-144.727z"/></svg>
